<svg width="10" height="10" viewBox="0 0 10 10" fill="none" xmlns="http://www.w3.org/2000/svg">
<path id="Vector" d="M8.84445 1.67222C8.73333 1.34444 8.42222 1.11111 8.05556 1.11111H6.66667V0H3.33333V1.11111H1.94444C1.57778 1.11111 1.27222 1.34444 1.15556 1.67222L0 5V9.44444C0 9.75 0.25 10 0.555556 10H1.11111C1.41667 10 1.66667 9.75 1.66667 9.44444V8.88889H8.33333V9.44444C8.33333 9.75 8.58333 10 8.88889 10H9.44444C9.75 10 10 9.75 10 9.44444V5L8.84445 1.67222ZM1.94444 7.22222C1.48333 7.22222 1.11111 6.85 1.11111 6.38889C1.11111 5.92778 1.48333 5.55556 1.94444 5.55556C2.40556 5.55556 2.77778 5.92778 2.77778 6.38889C2.77778 6.85 2.40556 7.22222 1.94444 7.22222ZM8.05556 7.22222C7.59444 7.22222 7.22222 6.85 7.22222 6.38889C7.22222 5.92778 7.59444 5.55556 8.05556 5.55556C8.51667 5.55556 8.88889 5.92778 8.88889 6.38889C8.88889 6.85 8.51667 7.22222 8.05556 7.22222ZM1.11111 4.44444L1.94444 1.94444H8.05556L8.88889 4.44444H1.11111Z" fill="#5686E1"/>
</svg>
