<svg width="10" height="12" viewBox="0 0 10 12" fill="none" xmlns="http://www.w3.org/2000/svg">
<path d="M5 0C2.2375 0 0 0.315789 0 2.52632V8.52632C0 9.74526 0.98125 10.7368 2.1875 10.7368L1.25 11.6842V12H8.75V11.6842L7.8125 10.7368C9.01875 10.7368 10 9.74526 10 8.52632V2.52632C10 0.315789 7.7625 0 5 0ZM2.1875 9.47368C1.66875 9.47368 1.25 9.05053 1.25 8.52632C1.25 8.0021 1.66875 7.57895 2.1875 7.57895C2.70625 7.57895 3.125 8.0021 3.125 8.52632C3.125 9.05053 2.70625 9.47368 2.1875 9.47368ZM4.375 5.68421H1.25V2.52632H4.375V5.68421ZM7.8125 9.47368C7.29375 9.47368 6.875 9.05053 6.875 8.52632C6.875 8.0021 7.29375 7.57895 7.8125 7.57895C8.33125 7.57895 8.75 8.0021 8.75 8.52632C8.75 9.05053 8.33125 9.47368 7.8125 9.47368ZM8.75 5.68421H5.625V2.52632H8.75V5.68421Z" fill="#5686E1"/>
</svg>
